<svg width="30" height="30" viewBox="0 0 30 30" fill="none" xmlns="http://www.w3.org/2000/svg">
<g clip-path="url(#clip0_10282_424884)">
<path d="M25.9651 23.904C23.4079 27.623 19.1102 29.9013 14.4663 29.9997C9.82236 30.0981 5.42391 28.0041 2.69796 24.3971L0.0292969 25.8547L4.31163 19.1953C4.31163 19.1992 4.31391 19.2032 4.31527 19.2067C5.5615 23.2883 9.49414 26.27 14.153 26.27C16.5977 26.2729 18.9624 25.4344 20.8172 23.9071L25.9651 23.904Z" fill="#14499E"/>
<path d="M16.5789 6.88035H16.5721C15.78 6.69684 14.9679 6.60434 14.153 6.6048C8.49236 6.6048 3.90314 11.0065 3.90314 16.4358C3.90289 17.0482 3.96188 17.6592 4.07935 18.2611L1.433 22.3769C0.49254 20.5272 0.00508456 18.4959 0.00782398 16.438C0.00782398 9.43319 5.54322 3.66856 12.6477 2.9476V0L16.5789 6.88035Z" fill="#4CAF4E"/>
<path d="M21.5747 23.2242H21.5642C21.5657 23.2225 21.5674 23.2209 21.5692 23.2194C23.3921 21.3928 24.4083 18.9613 24.4054 16.4329C24.4054 12.1408 21.5369 8.49145 17.5387 7.15084H17.5409L15.1113 2.89844C22.4776 3.37005 28.3003 9.24997 28.3003 16.4356C28.302 18.2892 27.9061 20.1235 27.1374 21.8242L29.7783 23.2242H21.5747Z" fill="#F7901E"/>
</g>
<defs>
<clipPath id="clip0_10282_424884">
<rect width="30" height="30" fill="white"/>
</clipPath>
</defs>
</svg>
