<?xml version="1.0" encoding="UTF-8"?>
<svg version="1.1" xmlns="http://www.w3.org/2000/svg" width="1080" height="341">
<path d="M0 0 C3 1 3 1 4.578125 3.78125 C5.14707324 5.01552661 5.70349401 6.25562383 6.25 7.5 C6.55156006 8.16563965 6.85312012 8.8312793 7.16381836 9.51708984 C9.72377837 15.22639137 12.09684845 21.01214875 14.44873047 26.80957031 C16.15742309 31.00839893 17.94949218 35.14437175 19.875 39.25 C22.63608444 45.13881696 25.24031155 51.08884385 27.8125 57.0625 C28.21001465 57.97999023 28.6075293 58.89748047 29.01708984 59.84277344 C29.38914551 60.71063477 29.76120117 61.57849609 30.14453125 62.47265625 C30.47815674 63.24875244 30.81178223 64.02484863 31.15551758 64.82446289 C31.94942291 66.86970441 32.52167814 68.8613874 33 71 C28.93774452 70.42176904 26.15237654 69.10882263 22.6875 66.9375 C21.80449219 66.38964844 20.92148437 65.84179688 20.01171875 65.27734375 C19.34785156 64.85582031 18.68398438 64.43429688 18 64 C18.33 64.99 18.66 65.98 19 67 C19.48261679 70.94579872 19.75147882 74.91235975 20.0625 78.875 C20.15337891 79.94492188 20.24425781 81.01484375 20.33789062 82.1171875 C20.94868071 89.75895223 21.10603458 97.33566328 21 105 C38.99728277 97.23925871 38.99728277 97.23925871 56.6328125 88.703125 C63.34429087 85.30845612 70.18649541 82.1833587 77 79 C77.33 73.39 77.66 67.78 78 62 C80.5738803 60.71305985 81.64783136 61.15380243 84.44970703 61.71264648 C85.37051056 61.89290878 86.29131409 62.07317108 87.24002075 62.25889587 C88.23589203 62.46092117 89.23176331 62.66294647 90.2578125 62.87109375 C91.27600067 63.0722731 92.29418884 63.27345245 93.3432312 63.48072815 C96.60510016 64.12672745 99.86502711 64.78200626 103.125 65.4375 C105.33190987 65.87626202 107.53893973 66.31442096 109.74609375 66.75195312 C115.16547586 67.82763325 120.58329091 68.91094413 126 70 C124.75989602 73.41000922 123.39343526 76.06822691 121.12890625 78.8984375 C120.55954346 79.61813721 119.99018066 80.33783691 119.40356445 81.0793457 C118.49223755 82.21569458 118.49223755 82.21569458 117.5625 83.375 C116.29525616 84.97919126 115.02965505 86.58468145 113.765625 88.19140625 C113.13333984 88.99465332 112.50105469 89.79790039 111.84960938 90.62548828 C109.10937553 94.14337561 106.44841801 97.71604712 103.8125 101.3125 C103.14553101 102.21718018 103.14553101 102.21718018 102.46508789 103.14013672 C100.61387597 105.67571865 98.8887583 108.19370058 97.32421875 110.91796875 C96.88722656 111.60503906 96.45023438 112.29210937 96 113 C95.34 113 94.68 113 94 113 C93.74992188 113.72316406 93.49984375 114.44632812 93.2421875 115.19140625 C91.89066934 118.24719731 90.26617488 120.38021 88.125 122.9375 C85.79645181 125.75959917 83.56917523 128.52462965 81.625 131.625 C81.08875 132.40875 80.5525 133.1925 80 134 C79.34 134 78.68 134 78 134 C78 128.72 78 123.44 78 118 C77.34 118 76.68 118 76 118 C76 118.66 76 119.32 76 120 C73.8828125 121.5078125 73.8828125 121.5078125 71.125 123.125 C70.22007812 123.66382813 69.31515625 124.20265625 68.3828125 124.7578125 C66 126 66 126 64 126 C64 126.66 64 127.32 64 128 C61.98240724 129.38297902 59.98214192 130.64278005 57.875 131.875 C56.725881 132.5587518 55.57744008 133.24364448 54.4296875 133.9296875 C53.8634668 134.26709961 53.29724609 134.60451172 52.71386719 134.95214844 C50.08862399 136.55721166 47.54686833 138.27370323 45 140 C45.65589738 141.98264795 45.65589738 141.98264795 47 144 C48.66607271 144.66814964 50.33284033 145.33456717 52 146 C53.70148499 147.13705007 55.36643746 148.32985753 57 149.5625 C61.13868747 152.63727185 65.31511471 155.64015371 69.5625 158.5625 C73.50737821 161.28133065 77.44917579 164.00371023 81.375 166.75 C82.17164063 167.30042969 82.96828125 167.85085937 83.7890625 168.41796875 C85.2135896 169.43728584 86.60824003 170.50040465 87.9609375 171.61328125 C89.91041479 173.26294204 89.91041479 173.26294204 93 175 C97.77816602 174.37676095 101.84838047 171.4740248 105.94921875 169.0234375 C108 168 108 168 111 168 C112.81708004 173.28282223 114.63178087 178.5664536 116.44433594 183.85083008 C117.06055335 185.64629882 117.67740651 187.44154951 118.29492188 189.23657227 C119.18529078 191.82510445 120.07332783 194.41442682 120.9609375 197.00390625 C121.37199234 198.19651817 121.37199234 198.19651817 121.79135132 199.41322327 C123.33038642 203.9114256 124.73617457 208.4166331 126 213 C122.6397855 214.68010725 118.93830177 213.57956352 115.3046875 213.14453125 C114.41639252 213.04284637 113.52809753 212.9411615 112.61288452 212.83639526 C109.69952135 212.50113568 106.78728373 212.15700041 103.875 211.8125 C101.87992571 211.58076646 99.88480825 211.34940427 97.88964844 211.1184082 C81.2469652 209.18260721 64.61811012 207.13614826 48 205 C49.55783307 201.63446019 50.78748422 200.16333661 54 198.25 C54.70125 197.82203125 55.4025 197.3940625 56.125 196.953125 C58 196 58 196 60 196 C60 195.34 60 194.68 60 194 C58.80375 193.649375 57.6075 193.29875 56.375 192.9375 C50.98472779 191.14637507 46.05072625 188.62048498 41.015625 186.01171875 C35.43411809 183.15495738 29.70181176 180.60517522 24 178 C23.91959473 178.94504395 23.83918945 179.89008789 23.75634766 180.86376953 C22.84426093 191.57642486 21.92518034 202.28846762 21 213 C20.84047852 214.84948242 20.84047852 214.84948242 20.67773438 216.73632812 C20.41352179 219.78286099 20.14531685 222.82900358 19.875 225.875 C19.79975098 226.74527832 19.72450195 227.61555664 19.64697266 228.51220703 C19.29726523 232.40299687 18.88048632 236.18455927 18 240 C18.804375 240.20625 19.60875 240.4125 20.4375 240.625 C25.110473 242.42860362 28.92616004 245.12115309 33 248 C31.40206392 251.86243977 28.77848315 254.5821296 25.9375 257.5625 C22.27133163 261.4789352 18.74531087 265.44629005 15.375 269.625 C12.34191322 273.37946959 9.25509788 277.06718566 6.0625 280.6875 C5.33160156 281.51636719 4.60070312 282.34523438 3.84765625 283.19921875 C2 285 2 285 0 285 C-0.24492188 284.32839844 -0.48984375 283.65679687 -0.7421875 282.96484375 C-4.66949972 272.46944042 -9.1999471 262.25119741 -13.69482422 251.98974609 C-16.85124835 244.75937388 -19.94874806 237.50359919 -23.04101562 230.24560547 C-23.9127153 228.20439019 -24.79125427 226.16628367 -25.671875 224.12890625 C-26.13078125 223.05511719 -26.5896875 221.98132813 -27.0625 220.875 C-27.44535156 219.98554688 -27.82820312 219.09609375 -28.22265625 218.1796875 C-29 216 -29 216 -29 213 C-25.70319035 213.65784963 -23.15882078 214.89420573 -20.25 216.5625 C-19.45078125 217.01753906 -18.6515625 217.47257813 -17.828125 217.94140625 C-17.22484375 218.29074219 -16.6215625 218.64007813 -16 219 C-16.06058594 218.20722656 -16.12117187 217.41445312 -16.18359375 216.59765625 C-17.08281301 204.07775727 -17.53700629 191.54251444 -18 179 C-25.06004324 182.18933089 -32.093353 185.43268196 -39.11376953 188.70825195 C-57.81113986 197.42849702 -57.81113986 197.42849702 -66.625 201.3125 C-67.26268311 201.59593262 -67.90036621 201.87936523 -68.55737305 202.17138672 C-72.75489861 204 -72.75489861 204 -75 204 C-75 209.94 -75 215.88 -75 222 C-90.89241728 220.34166081 -106.41788798 217.51854142 -122 214 C-121.18875533 210.29454529 -119.75461005 207.86726252 -117.5625 204.75 C-116.94503906 203.85796875 -116.32757813 202.9659375 -115.69140625 202.046875 C-115.13324219 201.37140625 -114.57507813 200.6959375 -114 200 C-113.34 200 -112.68 200 -112 200 C-111.75507813 199.2884375 -111.51015625 198.576875 -111.2578125 197.84375 C-109.83054455 194.61688333 -108.06849427 192.26603345 -105.875 189.5 C-104.97970843 188.35866892 -104.08523829 187.21669322 -103.19140625 186.07421875 C-102.69141113 185.43790527 -102.19141602 184.8015918 -101.67626953 184.14599609 C-98.3548759 179.89387696 -95.08608796 175.60145379 -91.8125 171.3125 C-91.14782715 170.44625 -90.4831543 169.58 -89.79833984 168.6875 C-85.84098864 163.50668164 -82.06545181 158.25234139 -78.4519043 152.82495117 C-77.97277588 152.22271729 -77.49364746 151.6204834 -77 151 C-76.34 151 -75.68 151 -75 151 C-75 155.95 -75 160.9 -75 166 C-73.68 165.67 -72.36 165.34 -71 165 C-71 164.34 -71 163.68 -71 163 C-68.9453125 161.51953125 -68.9453125 161.51953125 -66.125 159.8125 C-61.41557076 156.90462392 -56.87707013 153.84262573 -52.3671875 150.63671875 C-49.48347485 148.64286463 -46.51545883 146.82299685 -43.49609375 145.04296875 C-41.83021298 144.05874216 -41.83021298 144.05874216 -41 142 C-42.03833984 141.64421875 -42.03833984 141.64421875 -43.09765625 141.28125 C-46.54274461 139.76040345 -49.42411866 137.72179513 -52.4375 135.5 C-53.6808972 134.59752896 -54.92438955 133.69518899 -56.16796875 132.79296875 C-56.80138184 132.33067871 -57.43479492 131.86838867 -58.08740234 131.39208984 C-61.12759683 129.17927532 -64.18869063 126.99596175 -67.25 124.8125 C-67.83128662 124.39726074 -68.41257324 123.98202148 -69.01147461 123.55419922 C-73.28551188 120.50295935 -77.56564648 117.46100194 -81.88671875 114.4765625 C-83.19926888 113.55947572 -84.49704893 112.62035557 -85.76953125 111.6484375 C-88.76030774 109.41884805 -88.76030774 109.41884805 -92.3828125 109.2421875 C-95.93244311 110.26999099 -98.70519234 112.08713974 -101.81640625 114.0390625 C-104 115 -104 115 -106.03173828 114.7956543 C-108 114 -108 114 -108.9855957 112.36791992 C-109.21335693 111.66256104 -109.44111816 110.95720215 -109.67578125 110.23046875 C-109.94326172 109.43318359 -110.21074219 108.63589844 -110.48632812 107.81445312 C-110.75896484 106.94755859 -111.03160156 106.08066406 -111.3125 105.1875 C-111.91187719 103.36819836 -112.5121654 101.54919666 -113.11328125 99.73046875 C-113.41959473 98.78864746 -113.7259082 97.84682617 -114.04150391 96.87646484 C-114.99368177 94.01896111 -116.00531771 91.19076921 -117.04296875 88.36328125 C-117.37063232 87.46391846 -117.6982959 86.56455566 -118.03588867 85.63793945 C-118.66880486 83.90619487 -119.30809312 82.1767632 -119.9543457 80.44995117 C-120.37913208 79.26816284 -120.37913208 79.26816284 -120.8125 78.0625 C-121.06644531 77.37285156 -121.32039063 76.68320313 -121.58203125 75.97265625 C-122.07087817 73.66548153 -121.7296308 72.21867324 -121 70 C-83.17310366 73.87050788 -83.17310366 73.87050788 -67.1394043 76.0612793 C-61.47155039 76.83096125 -55.82097028 77.43420007 -50.109375 77.7890625 C-48 78 -48 78 -45 79 C-46.22025063 82.6607519 -47.126491 82.92339441 -50.4375 84.6875 C-51.24058594 85.12449219 -52.04367187 85.56148438 -52.87109375 86.01171875 C-55 87 -55 87 -57 87 C-57 87.66 -57 88.32 -57 89 C-55.845 89.33 -54.69 89.66 -53.5 90 C-46.63637956 92.27703048 -40.30937904 95.72863718 -33.89453125 99.02636719 C-31.2906739 100.36453512 -28.67799146 101.68473849 -26.0625 103 C-25.29035156 103.391875 -24.51820313 103.78375 -23.72265625 104.1875 C-22.16670098 105.07109784 -22.16670098 105.07109784 -21 105 C-20.44706816 98.70537878 -19.89592502 92.41060266 -19.34594727 86.11572266 C-19.15917167 83.98027106 -18.97200664 81.84485349 -18.78442383 79.70947266 C-17.76881677 68.1450936 -16.76203159 56.5844068 -16 45 C-17.09296387 44.33846924 -17.09296387 44.33846924 -18.20800781 43.66357422 C-19.94596354 42.61165365 -21.68391927 41.55973307 -23.421875 40.5078125 C-25.58274093 39.24403334 -27.74570395 38.08501165 -30 37 C-28.51131293 32.39860359 -26.25370145 29.49772906 -23 26 C-22.34 26 -21.68 26 -21 26 C-20.59116577 25.10788818 -20.59116577 25.10788818 -20.17407227 24.19775391 C-19.03199951 22.05990011 -17.87707268 20.58388243 -16.21484375 18.8359375 C-15.68439453 18.27132812 -15.15394531 17.70671875 -14.60742188 17.125 C-13.78081055 16.25875 -13.78081055 16.25875 -12.9375 15.375 C-9.03429271 11.50673691 -9.03429271 11.50673691 -6 7 C-5.34 7 -4.68 7 -4 7 C-3.71125 6.401875 -3.4225 5.80375 -3.125 5.1875 C-2 3 -2 3 0 0 Z " fill="#40B655" transform="translate(556,31)"/>
<path d="M0 0 C1.7257843 0.17672729 1.7257843 0.17672729 3.99731445 0.60498047 C4.84522049 0.76199432 5.69312653 0.91900818 6.56672668 1.08078003 C7.48958969 1.25779449 8.4124527 1.43480896 9.36328125 1.6171875 C10.30680954 1.79379913 11.25033783 1.97041077 12.22245789 2.15237427 C15.25350295 2.72125177 18.28295466 3.2981949 21.3125 3.875 C23.34560995 4.25700666 25.378812 4.63852346 27.41210938 5.01953125 C31.14677378 5.72229348 34.88141764 6.42511877 38.61450195 7.13623047 C39.36649368 7.2791452 40.11848541 7.42205994 40.89326477 7.56930542 C42.94638894 7.98903992 44.97129837 8.47573625 47 9 C45.39704847 14.30126454 41.96868284 18.12777321 38.5625 22.375 C37.29525616 23.97919126 36.02965505 25.58468145 34.765625 27.19140625 C34.13333984 27.99465332 33.50105469 28.79790039 32.84960938 29.62548828 C30.10937553 33.14337561 27.44841801 36.71604712 24.8125 40.3125 C24.367854 40.91562012 23.92320801 41.51874023 23.46508789 42.14013672 C21.61387597 44.67571865 19.8887583 47.19370058 18.32421875 49.91796875 C17.88722656 50.60503906 17.45023438 51.29210937 17 52 C16.34 52 15.68 52 15 52 C14.74992188 52.72316406 14.49984375 53.44632813 14.2421875 54.19140625 C12.89066934 57.24719731 11.26617488 59.38021 9.125 61.9375 C6.79645181 64.75959917 4.56917523 67.52462965 2.625 70.625 C2.08875 71.40875 1.5525 72.1925 1 73 C0.34 73 -0.32 73 -1 73 C-1 67.72 -1 62.44 -1 57 C-1.66 57 -2.32 57 -3 57 C-3 57.66 -3 58.32 -3 59 C-5.1171875 60.5078125 -5.1171875 60.5078125 -7.875 62.125 C-8.77992188 62.66382813 -9.68484375 63.20265625 -10.6171875 63.7578125 C-13 65 -13 65 -15 65 C-15 65.66 -15 66.32 -15 67 C-17.01759276 68.38297902 -19.01785808 69.64278005 -21.125 70.875 C-22.274119 71.5587518 -23.42255992 72.24364448 -24.5703125 72.9296875 C-25.1365332 73.26709961 -25.70275391 73.60451172 -26.28613281 73.95214844 C-28.91137601 75.55721166 -31.45313167 77.27370323 -34 79 C-33.34410262 80.98264795 -33.34410262 80.98264795 -32 83 C-30.33392729 83.66814964 -28.66715967 84.33456717 -27 85 C-25.29851501 86.13705007 -23.63356254 87.32985753 -22 88.5625 C-17.86131253 91.63727185 -13.68488529 94.64015371 -9.4375 97.5625 C-5.49262179 100.28133065 -1.55082421 103.00371023 2.375 105.75 C3.17164063 106.30042969 3.96828125 106.85085937 4.7890625 107.41796875 C6.2135896 108.43728584 7.60824003 109.50040465 8.9609375 110.61328125 C10.91041479 112.26294204 10.91041479 112.26294204 14 114 C18.77816602 113.37676095 22.84838047 110.4740248 26.94921875 108.0234375 C29 107 29 107 32 107 C33.81708004 112.28282223 35.63178087 117.5664536 37.44433594 122.85083008 C38.06055335 124.64629882 38.67740651 126.44154951 39.29492188 128.23657227 C40.18529078 130.82510445 41.07332783 133.41442682 41.9609375 136.00390625 C42.37199234 137.19651817 42.37199234 137.19651817 42.79135132 138.41322327 C44.33038642 142.9114256 45.73617457 147.4166331 47 152 C43.6397855 153.68010725 39.93830177 152.57956352 36.3046875 152.14453125 C35.41639252 152.04284637 34.52809753 151.9411615 33.61288452 151.83639526 C30.69952135 151.50113568 27.78728373 151.15700041 24.875 150.8125 C22.87992571 150.58076646 20.88480825 150.34940427 18.88964844 150.1184082 C2.2469652 148.18260721 -14.38188988 146.13614826 -31 144 C-29.44216693 140.63446019 -28.21251578 139.16333661 -25 137.25 C-24.29875 136.82203125 -23.5975 136.3940625 -22.875 135.953125 C-21 135 -21 135 -19 135 C-19 134.34 -19 133.68 -19 133 C-20.19625 132.649375 -21.3925 132.29875 -22.625 131.9375 C-28.73249196 129.89849332 -34.35761546 126.93198624 -40.06591797 123.99121094 C-43.40544803 122.27971232 -46.76640646 120.61118575 -50.125 118.9375 C-53.85113611 117.07710493 -57.57586445 115.21433184 -61.29296875 113.3359375 C-69.39525768 109.24810738 -77.55141554 105.3250243 -86 102 C-86 101.34 -86 100.68 -86 100 C-86.58007812 99.80664062 -87.16015625 99.61328125 -87.7578125 99.4140625 C-92.171875 97.94270833 -96.5859375 96.47135417 -101 95 C-100 92 -100 92 -98.328125 90.90234375 C-97.64234375 90.58394531 -96.9565625 90.26554687 -96.25 89.9375 C-95.52296875 89.59460938 -94.7959375 89.25171875 -94.046875 88.8984375 C-92.55019028 88.24149573 -91.03044361 87.63641636 -89.5 87.0625 C-86.36946749 85.73202368 -83.74234876 83.87828478 -80.96484375 81.92578125 C-78.45389121 80.7426883 -77.60094853 81.16101348 -75 82 C-73.73960532 82.60991686 -72.50101726 83.26647703 -71.28515625 83.9609375 C-70.59873047 84.35023438 -69.91230469 84.73953125 -69.20507812 85.140625 C-68.49802734 85.54796875 -67.79097656 85.9553125 -67.0625 86.375 C-66.00772461 86.97441406 -66.00772461 86.97441406 -64.93164062 87.5859375 C-61.2593543 89.67848678 -57.62078778 91.81931161 -54 94 C-54.08564209 93.27522461 -54.17128418 92.55044922 -54.25952148 91.80371094 C-54.65427351 88.45271674 -55.0459004 85.101364 -55.4375 81.75 C-55.57220703 80.61046875 -55.70691406 79.4709375 -55.84570312 78.296875 C-57.18209159 66.82349114 -58.1844817 55.56085292 -58 44 C-57.31599121 43.70343506 -56.63198242 43.40687012 -55.92724609 43.10131836 C-38.97826179 35.76350671 -38.97826179 35.76350671 -22.3671875 27.703125 C-15.65620769 24.3087083 -8.81596976 21.17693506 -2 18 C-1.93941406 16.78441406 -1.87882813 15.56882812 -1.81640625 14.31640625 C-1.73201668 12.73175772 -1.6473679 11.14712298 -1.5625 9.5625 C-1.52318359 8.76005859 -1.48386719 7.95761719 -1.44335938 7.13085938 C-1.11328125 1.11328125 -1.11328125 1.11328125 0 0 Z " fill="#F79020" transform="translate(635,92)"/>
<path d="M0 0 C3 1 3 1 4.578125 3.78125 C5.14707324 5.01552661 5.70349401 6.25562383 6.25 7.5 C6.55156006 8.16563965 6.85312012 8.8312793 7.16381836 9.51708984 C9.72377837 15.22639137 12.09684845 21.01214875 14.44873047 26.80957031 C16.15742309 31.00839893 17.94949218 35.14437175 19.875 39.25 C22.63608444 45.13881696 25.24031155 51.08884385 27.8125 57.0625 C28.21001465 57.97999023 28.6075293 58.89748047 29.01708984 59.84277344 C29.38914551 60.71063477 29.76120117 61.57849609 30.14453125 62.47265625 C30.64496948 63.63680054 30.64496948 63.63680054 31.15551758 64.82446289 C31.94942291 66.86970441 32.52167814 68.8613874 33 71 C28.93774452 70.42176904 26.15237654 69.10882263 22.6875 66.9375 C21.80449219 66.38964844 20.92148437 65.84179688 20.01171875 65.27734375 C19.34785156 64.85582031 18.68398438 64.43429688 18 64 C18.33 64.99 18.66 65.98 19 67 C19.46421307 70.69516827 19.71153644 74.41239296 20 78.125 C20.13353882 79.80420532 20.13353882 79.80420532 20.26977539 81.51733398 C20.84169709 89.03123816 21.20198235 96.53146952 21.4375 104.0625 C21.80022154 115.54991903 22.8265536 126.93624115 23.98413086 138.36547852 C24.11440674 139.66155029 24.24468262 140.95762207 24.37890625 142.29296875 C24.4982251 143.4430542 24.61754395 144.59313965 24.74047852 145.77807617 C24.98943779 148.86887159 25.04661465 151.900859 25 155 C20.05560901 153.26946315 15.72834891 150.60713969 11.25 147.9375 C10.47011719 147.47794922 9.69023438 147.01839844 8.88671875 146.54492188 C3.14457289 143.14457289 3.14457289 143.14457289 2 142 C1.91251793 140.07332493 1.89302666 138.14348139 1.90234375 136.21484375 C1.90556641 135.04501953 1.90878906 133.87519531 1.91210938 132.66992188 C1.92048828 131.43822266 1.92886719 130.20652344 1.9375 128.9375 C1.94201172 127.70193359 1.94652344 126.46636719 1.95117188 125.19335938 C1.96300392 122.12885883 1.97948827 119.06445279 2 116 C1.26797363 116.46583496 0.53594727 116.93166992 -0.21826172 117.41162109 C-6.81217448 121.6077474 -13.40608724 125.8038737 -20 130 C-22.49482328 127.50517672 -21.31055495 120.20120084 -21.32788086 116.73876953 C-21.17697363 100.04391413 -19.2696777 83.39799888 -17.71003723 66.78929138 C-17.03339173 59.53231028 -16.4673889 52.27378852 -16 45 C-16.72864258 44.55897949 -17.45728516 44.11795898 -18.20800781 43.66357422 C-19.94596354 42.61165365 -21.68391927 41.55973307 -23.421875 40.5078125 C-25.58274093 39.24403334 -27.74570395 38.08501165 -30 37 C-28.51131293 32.39860359 -26.25370145 29.49772906 -23 26 C-22.34 26 -21.68 26 -21 26 C-20.72744385 25.40525879 -20.4548877 24.81051758 -20.17407227 24.19775391 C-19.03199951 22.05990011 -17.87707268 20.58388243 -16.21484375 18.8359375 C-15.41916992 17.98902344 -15.41916992 17.98902344 -14.60742188 17.125 C-14.05634766 16.5475 -13.50527344 15.97 -12.9375 15.375 C-9.03429271 11.50673691 -9.03429271 11.50673691 -6 7 C-5.34 7 -4.68 7 -4 7 C-3.71125 6.401875 -3.4225 5.80375 -3.125 5.1875 C-2 3 -2 3 0 0 Z " fill="#16499C" transform="translate(556,31)"/>
<path d="M0 0 C1.7257843 0.17672729 1.7257843 0.17672729 3.99731445 0.60498047 C4.84522049 0.76199432 5.69312653 0.91900818 6.56672668 1.08078003 C7.48958969 1.25779449 8.4124527 1.43480896 9.36328125 1.6171875 C10.30680954 1.79379913 11.25033783 1.97041077 12.22245789 2.15237427 C15.25350295 2.72125177 18.28295466 3.2981949 21.3125 3.875 C23.34560995 4.25700666 25.378812 4.63852346 27.41210938 5.01953125 C31.14677378 5.72229348 34.88141764 6.42511877 38.61450195 7.13623047 C39.36649368 7.2791452 40.11848541 7.42205994 40.89326477 7.56930542 C42.94638894 7.98903992 44.97129837 8.47573625 47 9 C45.39704847 14.30126454 41.96868284 18.12777321 38.5625 22.375 C37.29525616 23.97919126 36.02965505 25.58468145 34.765625 27.19140625 C34.13333984 27.99465332 33.50105469 28.79790039 32.84960938 29.62548828 C30.10937553 33.14337561 27.44841801 36.71604712 24.8125 40.3125 C24.367854 40.91562012 23.92320801 41.51874023 23.46508789 42.14013672 C21.61387597 44.67571865 19.8887583 47.19370058 18.32421875 49.91796875 C17.88722656 50.60503906 17.45023438 51.29210937 17 52 C16.34 52 15.68 52 15 52 C14.74992188 52.72316406 14.49984375 53.44632813 14.2421875 54.19140625 C12.89066934 57.24719731 11.26617488 59.38021 9.125 61.9375 C6.79645181 64.75959917 4.56917523 67.52462965 2.625 70.625 C2.08875 71.40875 1.5525 72.1925 1 73 C0.34 73 -0.32 73 -1 73 C-1 67.72 -1 62.44 -1 57 C-1.66 57 -2.32 57 -3 57 C-3 57.66 -3 58.32 -3 59 C-5.1171875 60.5078125 -5.1171875 60.5078125 -7.875 62.125 C-8.77992188 62.66382813 -9.68484375 63.20265625 -10.6171875 63.7578125 C-13 65 -13 65 -15 65 C-15 65.66 -15 66.32 -15 67 C-17.01759276 68.38297902 -19.01785808 69.64278005 -21.125 70.875 C-22.274119 71.5587518 -23.42255992 72.24364448 -24.5703125 72.9296875 C-25.43124512 73.43387207 -25.43124512 73.43387207 -26.30957031 73.94824219 C-27.95712342 74.97332289 -29.50949556 76.14659893 -31.0546875 77.3203125 C-34 79 -34 79 -36.9921875 79.02734375 C-40.6628211 77.77360786 -43.09838527 75.98146957 -46.125 73.5625 C-49.97291368 70.40380765 -49.97291368 70.40380765 -54.2890625 68.01953125 C-56 67 -56 67 -56.828125 64.8203125 C-57.03695312 63.48613281 -57.03695312 63.48613281 -57.25 62.125 C-57.39953125 61.26132813 -57.5490625 60.39765625 -57.703125 59.5078125 C-58.14053316 54.3394898 -58.05671928 49.18351157 -58 44 C-57.31599121 43.70343506 -56.63198242 43.40687012 -55.92724609 43.10131836 C-38.97826179 35.76350671 -38.97826179 35.76350671 -22.3671875 27.703125 C-15.65620769 24.3087083 -8.81596976 21.17693506 -2 18 C-1.90912109 16.17662109 -1.90912109 16.17662109 -1.81640625 14.31640625 C-1.73201668 12.73175772 -1.6473679 11.14712298 -1.5625 9.5625 C-1.52318359 8.76005859 -1.48386719 7.95761719 -1.44335938 7.13085938 C-1.11328125 1.11328125 -1.11328125 1.11328125 0 0 Z " fill="#FDEA02" transform="translate(635,92)"/>
<path d="M0 0 C3.0625 0.8125 3.0625 0.8125 4.89453125 2.1953125 C7.4076575 4.06996884 9.94590462 5.23733299 12.8125 6.5 C14.5625 7.27083333 16.3125 8.04166667 18.0625 8.8125 C18.16600532 16.62482449 17.91325695 24.30897138 17.22265625 32.08984375 C17.13624374 33.10422012 17.04983124 34.1185965 16.96080017 35.16371155 C16.77910618 37.28391067 16.59496717 39.40390161 16.40844727 41.52368164 C16.12359948 44.76594131 15.84735335 48.00885222 15.57226562 51.25195312 C15.39373107 53.32296 15.21471196 55.39392516 15.03515625 57.46484375 C14.95282242 58.4294603 14.87048859 59.39407684 14.78565979 60.38792419 C14.66564857 61.74072227 14.66564857 61.74072227 14.54321289 63.12084961 C14.47437393 63.90850204 14.40553497 64.69615448 14.33460999 65.50767517 C14.04291842 67.9783598 13.5805127 70.38006549 13.0625 72.8125 C13.866875 73.01875 14.67125 73.225 15.5 73.4375 C20.172973 75.24110362 23.98866004 77.93365309 28.0625 80.8125 C26.46456392 84.67493977 23.84098315 87.3946296 21 90.375 C17.33383163 94.2914352 13.80781087 98.25879005 10.4375 102.4375 C7.40441322 106.19196959 4.31759788 109.87968566 1.125 113.5 C0.39410156 114.32886719 -0.33679688 115.15773438 -1.08984375 116.01171875 C-2.9375 117.8125 -2.9375 117.8125 -4.9375 117.8125 C-5.30488281 116.80509766 -5.30488281 116.80509766 -5.6796875 115.77734375 C-9.60699972 105.28194042 -14.1374471 95.06369741 -18.63232422 84.80224609 C-21.78874835 77.57187388 -24.88624806 70.31609919 -27.97851562 63.05810547 C-28.8502153 61.01689019 -29.72875427 58.97878367 -30.609375 56.94140625 C-31.06828125 55.86761719 -31.5271875 54.79382813 -32 53.6875 C-32.38285156 52.79804688 -32.76570312 51.90859375 -33.16015625 50.9921875 C-33.9375 48.8125 -33.9375 48.8125 -33.9375 45.8125 C-30.64069035 46.47034963 -28.09632078 47.70670573 -25.1875 49.375 C-24.38828125 49.83003906 -23.5890625 50.28507812 -22.765625 50.75390625 C-21.86070312 51.27791016 -21.86070312 51.27791016 -20.9375 51.8125 C-20.99808594 51.03132813 -21.05867187 50.25015625 -21.12109375 49.4453125 C-21.36091778 46.13205129 -21.57581444 42.81885853 -21.77441406 39.50292969 C-21.89373331 37.53451939 -22.01890332 35.56646134 -22.14746094 33.59863281 C-22.3700601 30.08750201 -22.56235717 26.57565808 -22.75 23.0625 C-22.82726318 21.90766113 -22.90452637 20.75282227 -22.98413086 19.56298828 C-23.06352905 17.93079346 -23.06352905 17.93079346 -23.14453125 16.265625 C-23.2010083 15.28754883 -23.25748535 14.30947266 -23.31567383 13.30175781 C-22.9375 10.8125 -22.9375 10.8125 -21.07910156 9.04467773 C-18.72849863 7.69225035 -16.39879442 6.61852993 -13.875 5.625 C-12.58916016 5.10873047 -12.58916016 5.10873047 -11.27734375 4.58203125 C-8.9375 3.8125 -8.9375 3.8125 -5.9375 3.8125 C-5.9375 3.1525 -5.9375 2.4925 -5.9375 1.8125 C-2.9375 -0.1875 -2.9375 -0.1875 0 0 Z " fill="#37A4DD" transform="translate(560.9375,198.1875)"/>
<path d="M0 0 C37.82689634 3.87050788 37.82689634 3.87050788 53.8605957 6.0612793 C59.52844961 6.83096125 65.17902972 7.43420007 70.890625 7.7890625 C73 8 73 8 76 9 C74.77974937 12.6607519 73.873509 12.92339441 70.5625 14.6875 C69.35787109 15.34298828 69.35787109 15.34298828 68.12890625 16.01171875 C66 17 66 17 64 17 C64 17.66 64 18.32 64 19 C65.155 19.33 66.31 19.66 67.5 20 C74.34704471 22.27874832 80.67065021 25.67768547 87.05810547 28.99658203 C88.84399766 29.91939029 90.6421868 30.81829739 92.44140625 31.71484375 C93.43011719 32.22144531 94.41882813 32.72804687 95.4375 33.25 C96.30246094 33.68828125 97.16742187 34.1265625 98.05859375 34.578125 C100.46270188 36.33888025 100.48819602 37.12595043 101 40 C102.41060121 57.75372371 102.41060121 57.75372371 97.94921875 63.76171875 C95.37315548 65.50124554 92.84229128 66.75360264 90 68 C88.70602194 68.96986501 87.43181578 69.96719043 86.1875 71 C83 73 83 73 80.71875 72.9140625 C77.10550549 71.69926478 74.32562438 69.6405257 71.3125 67.375 C70.05496174 66.45275094 68.79714833 65.53087696 67.5390625 64.609375 C66.9296582 64.15884766 66.32025391 63.70832031 65.69238281 63.24414062 C63.54872222 61.66824703 61.37306357 60.1421266 59.1875 58.625 C56.05603495 56.44183219 52.93277855 54.24760327 49.81640625 52.04296875 C49.06528564 51.51171387 48.31416504 50.98045898 47.5402832 50.43310547 C46.04747147 49.37679119 44.55509937 48.31985525 43.06323242 47.26220703 C41.68186283 46.28503548 40.29696879 45.31282272 38.90820312 44.34619141 C37.69719807 43.49185647 36.50085394 42.61603029 35.32617188 41.71240234 C32.89626581 39.90393777 31.48622069 38.98386598 28.41015625 39.0859375 C25.06145803 40.35594622 22.20766115 42.14181398 19.18359375 44.0390625 C17 45 17 45 14.96826172 44.7956543 C13 44 13 44 12.0144043 42.36791992 C11.78664307 41.66256104 11.55888184 40.95720215 11.32421875 40.23046875 C11.05673828 39.43318359 10.78925781 38.63589844 10.51367188 37.81445312 C10.24103516 36.94755859 9.96839844 36.08066406 9.6875 35.1875 C9.08812281 33.36819836 8.4878346 31.54919666 7.88671875 29.73046875 C7.58040527 28.78864746 7.2740918 27.84682617 6.95849609 26.87646484 C6.00631823 24.01896111 4.99468229 21.19076921 3.95703125 18.36328125 C3.62936768 17.46391846 3.3017041 16.56455566 2.96411133 15.63793945 C2.33119514 13.90619487 1.69190688 12.1767632 1.0456543 10.44995117 C0.76246338 9.66209229 0.47927246 8.8742334 0.1875 8.0625 C-0.06644531 7.37285156 -0.32039063 6.68320313 -0.58203125 5.97265625 C-1.07087817 3.66548153 -0.7296308 2.21867324 0 0 Z " fill="#FEC50C" transform="translate(435,101)"/>
<path d="M0 0 C0.66 0.33 1.32 0.66 2 1 C1.67 2.32 1.34 3.64 1 5 C1.99 5.66 2.98 6.32 4 7 C4 7.66 4 8.32 4 9 C5.65 9.33 7.3 9.66 9 10 C9.33 10.99 9.66 11.98 10 13 C10.66 13.33 11.32 13.66 12 14 C11.67 14.66 11.34 15.32 11 16 C9.35 15.34 7.7 14.68 6 14 C6 13.34 6 12.68 6 12 C5.41992188 11.80664062 4.83984375 11.61328125 4.2421875 11.4140625 C-0.171875 9.94270833 -4.5859375 8.47135417 -9 7 C-8 4 -8 4 -6.22265625 2.796875 C-5.50980469 2.45140625 -4.79695312 2.1059375 -4.0625 1.75 C-3.35222656 1.39421875 -2.64195312 1.0384375 -1.91015625 0.671875 C-1.27980469 0.45015625 -0.64945313 0.2284375 0 0 Z " fill="#E89020" transform="translate(543,180)"/>
<path d="M0 0 C2.00818027 0.2014018 4.00832461 0.48603434 6 0.8125 C7.093125 0.98394531 8.18625 1.15539062 9.3125 1.33203125 C10.199375 1.55246094 11.08625 1.77289063 12 2 C12.33 2.66 12.66 3.32 13 4 C7.555 3.505 7.555 3.505 2 3 C2.04382813 4.09699219 2.08765625 5.19398437 2.1328125 6.32421875 C2.17702451 10.72102681 1.95068585 14.68935594 1 19 C-1.91918641 21.95319635 -5.08494183 22.82266596 -9 24 C-10.51485827 24.74120742 -12.01686234 25.50970071 -13.5 26.3125 C-17 28 -17 28 -19 28 C-19 27.34 -19 26.68 -19 26 C-13.39 23.36 -7.78 20.72 -2 18 C-1.71080741 12.4505765 -1.71080741 12.4505765 -1.43188477 6.90063477 C-1.11111111 1.11111111 -1.11111111 1.11111111 0 0 Z " fill="#FDF711" transform="translate(635,92)"/>
<path d="M0 0 C2.11126943 4.22253885 2.2171997 6.14001523 2.125 10.75 C2.10695313 11.92046875 2.08890625 13.0909375 2.0703125 14.296875 C2.03550781 15.63492188 2.03550781 15.63492188 2 17 C0.783125 16.79375 -0.43375 16.5875 -1.6875 16.375 C-5.34806773 15.90036156 -7.67611512 16.23418616 -11 18 C-11.66 15.03 -12.32 12.06 -13 9 C-8.024306 10.2439235 -4.4463831 12.44986852 0 15 C0 10.05 0 5.1 0 0 Z " fill="#3FAFE8" transform="translate(540,235)"/>
<path d="M0 0 C1.73443359 0.16048828 1.73443359 0.16048828 3.50390625 0.32421875 C4.65761719 0.42347656 5.81132812 0.52273437 7 0.625 C10.06640625 1.01171875 10.06640625 1.01171875 13.06640625 2.01171875 C11.84615562 5.67247065 10.93991525 5.93511316 7.62890625 7.69921875 C6.82582031 8.13621094 6.02273438 8.57320312 5.1953125 9.0234375 C3.06640625 10.01171875 3.06640625 10.01171875 1.06640625 10.01171875 C1.06640625 10.67171875 1.06640625 11.33171875 1.06640625 12.01171875 C2.05640625 12.34171875 3.04640625 12.67171875 4.06640625 13.01171875 C3.07640625 13.50671875 3.07640625 13.50671875 2.06640625 14.01171875 C-0.05859375 13.07421875 -0.05859375 13.07421875 -1.93359375 12.01171875 C-1.60359375 11.02171875 -1.27359375 10.03171875 -0.93359375 9.01171875 C-0.27359375 8.70234375 0.38640625 8.39296875 1.06640625 8.07421875 C1.72640625 7.72359375 2.38640625 7.37296875 3.06640625 7.01171875 C3.39640625 5.69171875 3.72640625 4.37171875 4.06640625 3.01171875 C1.09640625 2.68171875 -1.87359375 2.35171875 -4.93359375 2.01171875 C-2.93359375 0.01171875 -2.93359375 0.01171875 0 0 Z " fill="#FED116" transform="translate(497.93359375,107.98828125)"/>
<path d="M0 0 C4.37530211 0.47643374 8.75018363 0.95662806 13.125 1.4375 C14.3625 1.57220703 15.6 1.70691406 16.875 1.84570312 C18.67324219 2.04389648 18.67324219 2.04389648 20.5078125 2.24609375 C22.15740967 2.42676392 22.15740967 2.42676392 23.84033203 2.61108398 C26.91232619 2.98920844 29.95128335 3.46778003 33 4 C33 4.66 33 5.32 33 6 C26.90687448 6.20500235 21.33253312 6.08464479 15.4140625 4.578125 C10.66537792 3.44089957 5.82005853 2.76664214 1 2 C1.350625 2.763125 1.70125 3.52625 2.0625 4.3125 C3 7 3 7 2 10 C-1.10096154 4.54230769 -1.10096154 4.54230769 -0.58984375 1.796875 C-0.29787109 0.90742187 -0.29787109 0.90742187 0 0 Z " fill="#FED71D" transform="translate(435,101)"/>
<path d="M0 0 C0 0.99 0 1.98 0 3 C-3.33333333 6 -3.33333333 6 -6 6 C-6.144375 6.7425 -6.28875 7.485 -6.4375 8.25 C-6.90187492 10.52027739 -7.41863569 12.75759479 -8 15 C-8.99 14.67 -9.98 14.34 -11 14 C-11 13.34 -11 12.68 -11 12 C-11.62648438 12.22816406 -12.25296875 12.45632812 -12.8984375 12.69140625 C-13.71570313 12.97886719 -14.53296875 13.26632813 -15.375 13.5625 C-16.59316406 13.99755859 -16.59316406 13.99755859 -17.8359375 14.44140625 C-20 15 -20 15 -22 14 C-21.67 12.68 -21.34 11.36 -21 10 C-20.34 10 -19.68 10 -19 10 C-19 10.99 -19 11.98 -19 13 C-17.68 12.67 -16.36 12.34 -15 12 C-15 11.34 -15 10.68 -15 10 C-12.734375 8.37890625 -12.734375 8.37890625 -9.75 6.5625 C-6.37970314 4.49841608 -3.11980613 2.42899191 0 0 Z " fill="#48BC5C" transform="translate(500,184)"/>
<path d="M0 0 C0.66 0.33 1.32 0.66 2 1 C1.59007812 1.56847656 1.18015625 2.13695312 0.7578125 2.72265625 C-2.53029214 7.43455739 -4.80218296 11.37025993 -6 17 C-7.65 17 -9.3 17 -11 17 C-11.37125 17.804375 -11.37125 17.804375 -11.75 18.625 C-13.29696975 21.56424252 -15.13014369 24.25754408 -17 27 C-17.33 26.01 -17.66 25.02 -18 24 C-17.10717773 22.31762695 -17.10717773 22.31762695 -15.68359375 20.48828125 C-15.16603516 19.81216797 -14.64847656 19.13605469 -14.11523438 18.43945312 C-13.56158203 17.73755859 -13.00792969 17.03566406 -12.4375 16.3125 C-11.91091797 15.62994141 -11.38433594 14.94738281 -10.84179688 14.24414062 C-9.77693836 12.86386503 -8.70840142 11.48641956 -7.63623047 10.11181641 C-5.04900541 6.7725898 -2.52384557 3.3872515 0 0 Z " fill="#47BF5F" transform="translate(462,205)"/>
<path d="M0 0 C0.66 0 1.32 0 2 0 C2 1.65 2 3.3 2 5 C0.02 5.99 0.02 5.99 -2 7 C-2 7.66 -2 8.32 -2 9 C-2.99 9 -3.98 9 -5 9 C-5.20625 9.94875 -5.4125 10.8975 -5.625 11.875 C-7 15 -7 15 -10.125 16.375 C-11.07375 16.58125 -12.0225 16.7875 -13 17 C-11.32598022 13.04322598 -8.86850715 10.15535787 -6 7 C-5.34 7 -4.68 7 -4 7 C-3.71125 6.401875 -3.4225 5.80375 -3.125 5.1875 C-2 3 -2 3 0 0 Z " fill="#1548AB" transform="translate(556,31)"/>
<path d="M0 0 C0.99 0 1.98 0 3 0 C3.33 3.96 3.66 7.92 4 12 C5.32 11.01 6.64 10.02 8 9 C6.7580393 12.43927579 5.44259716 15.25207819 3 18 C2.34 18 1.68 18 1 18 C1 12.72 1 7.44 1 2 C0.34 1.67 -0.32 1.34 -1 1 C-0.67 0.67 -0.34 0.34 0 0 Z " fill="#F9EB17" transform="translate(633,147)"/>
<path d="M0 0 C0.66 0.66 1.32 1.32 2 2 C1.01 2 0.02 2 -1 2 C-1 2.66 -1 3.32 -1 4 C-3.75078884 4.91692961 -5.35948913 5.10886083 -8.1875 5.0625 C-10.0746875 5.0315625 -10.0746875 5.0315625 -12 5 C-5.33980583 -2.13592233 -5.33980583 -2.13592233 0 0 Z " fill="#E28E23" transform="translate(560,174)"/>
<path d="M0 0 C2.97 0.33 5.94 0.66 9 1 C7.65378455 4.80863968 5.94641263 7.65409851 3.4375 10.8125 C2.50744141 11.99779297 2.50744141 11.99779297 1.55859375 13.20703125 C1.04425781 13.79871094 0.52992188 14.39039062 0 15 C-0.33 15 -0.66 15 -1 15 C-1 13.35 -1 11.7 -1 10 C-0.01 10 0.98 10 2 10 C2.28875 9.401875 2.5775 8.80375 2.875 8.1875 C4 6 4 6 6 3 C3.03 2.505 3.03 2.505 0 2 C0 1.34 0 0.68 0 0 Z " fill="#FEF711" transform="translate(673,100)"/>
<path d="M0 0 C1.32 0.33 2.64 0.66 4 1 C4.88099735 3.97818634 5.06705164 6.45292865 4.87890625 9.546875 C4.83056641 10.39121094 4.78222656 11.23554688 4.73242188 12.10546875 C4.67634766 12.97816406 4.62027344 13.85085937 4.5625 14.75 C4.51029297 15.63816406 4.45808594 16.52632812 4.40429688 17.44140625 C4.27498267 19.62799196 4.14003358 21.81407894 4 24 C3.67 24 3.34 24 3 24 C2.11942653 17.50577065 1.96855991 11.27525113 2.16015625 4.72265625 C2.29374095 1.85083172 2.29374095 1.85083172 0 0 Z " fill="#E7BF34" transform="translate(531,136)"/>
<path d="M0 0 C1.15822266 0.59554687 1.15822266 0.59554687 2.33984375 1.203125 C3.24734375 1.491875 4.15484375 1.780625 5.08984375 2.078125 C7.33984375 3.203125 7.33984375 3.203125 8.15234375 5.328125 C8.21421875 5.946875 8.27609375 6.565625 8.33984375 7.203125 C5.19792951 5.66707804 2.25387637 4.14581341 -0.66015625 2.203125 C-4.99933247 2.56472302 -8.73532939 4.43310504 -12.66015625 6.203125 C-12.66015625 5.543125 -12.66015625 4.883125 -12.66015625 4.203125 C-11.11012874 3.30621588 -9.54445707 2.4363053 -7.97265625 1.578125 C-7.10253906 1.09085938 -6.23242188 0.60359375 -5.3359375 0.1015625 C-2.66015625 -0.796875 -2.66015625 -0.796875 0 0 Z " fill="#FEDB1C" transform="translate(466.66015625,137.796875)"/>
<path d="M0 0 C3.3 0.33 6.6 0.66 10 1 C10 3.6875 10 3.6875 9 7 C6.15540878 9.4194655 2.83472835 12 -1 12 C-1 11.34 -1 10.68 -1 10 C4.41176471 6 4.41176471 6 7 6 C7 5.34 7 4.68 7 4 C6.030625 3.71125 5.06125 3.4225 4.0625 3.125 C1 2 1 2 0 0 Z " fill="#FD9E28" transform="translate(609,221)"/>
<path d="M0 0 C2.31 0 4.62 0 7 0 C7.12181641 0.88945312 7.12181641 0.88945312 7.24609375 1.796875 C8.23118234 4.67557949 9.59207507 5.52462386 12.0625 7.25 C12.79597656 7.77078125 13.52945313 8.2915625 14.28515625 8.828125 C15.13400391 9.40820312 15.13400391 9.40820312 16 10 C15.01 10.495 15.01 10.495 14 11 C11.6638026 9.35810616 9.33099647 7.7117475 7 6.0625 C6.33226562 5.59392578 5.66453125 5.12535156 4.9765625 4.64257812 C3.29970233 3.45337627 1.64761213 2.22940446 0 1 C0 0.67 0 0.34 0 0 Z " fill="#FCD21D" transform="translate(499,162)"/>
<path d="M0 0 C1.65 0.33 3.3 0.66 5 1 C4.01 2.485 4.01 2.485 3 4 C2.34 4 1.68 4 1 4 C1 4.66 1 5.32 1 6 C-0.98 6.66 -2.96 7.32 -5 8 C-5 6.68 -5 5.36 -5 4 C-4.360625 3.71125 -3.72125 3.4225 -3.0625 3.125 C-0.84793921 2.17176549 -0.84793921 2.17176549 0 0 Z " fill="#41AE60" transform="translate(554,196)"/>
<path d="M0 0 C5.00028314 1.34153938 9.19067503 3.48370003 13 7 C13 7.66 13 8.32 13 9 C6.25 7.125 6.25 7.125 4 6 C3.67 5.01 3.34 4.02 3 3 C1.50014391 1.33289654 1.50014391 1.33289654 0 0 Z " fill="#FC9D29" transform="translate(638,200)"/>
<path d="M0 0 C0.66 0 1.32 0 2 0 C2 0.66 2 1.32 2 2 C2.67546875 1.97679687 3.3509375 1.95359375 4.046875 1.9296875 C5.38492188 1.90261719 5.38492188 1.90261719 6.75 1.875 C7.63171875 1.85179687 8.5134375 1.82859375 9.421875 1.8046875 C12.1135858 2.00860498 13.69904974 2.63448279 16 4 C12.21286807 5.26237731 9.74348067 4.67558873 5.8125 4.0625 C4.54019531 3.86785156 3.26789062 3.67320312 1.95703125 3.47265625 C0.98121094 3.31667969 0.00539063 3.16070312 -1 3 C-0.67 2.01 -0.34 1.02 0 0 Z " fill="#FBA32A" transform="translate(605,233)"/>
<path d="M0 0 C1.58367747 0.14204741 3.16693318 0.28880153 4.75 0.4375 C5.63171875 0.51871094 6.5134375 0.59992188 7.421875 0.68359375 C9.69350452 0.96238465 11.79851823 1.38790577 14 2 C14 2.66 14 3.32 14 4 C9.38 3.34 4.76 2.68 0 2 C0 1.34 0 0.68 0 0 Z " fill="#4CBF5F" transform="translate(438,244)"/>
<path d="M0 0 C-3.54039134 2.9156164 -7.1626772 5.50127818 -11 8 C-10.6875 6.0625 -10.6875 6.0625 -10 4 C-9.01 3.67 -8.02 3.34 -7 3 C-7 2.34 -7 1.68 -7 1 C-4.53721199 -0.231394 -2.7204945 -0.07159196 0 0 Z " fill="#ECC114" transform="translate(534,162)"/>
<path d="M0 0 C0.33 0.99 0.66 1.98 1 3 C3.50447516 4.21869929 3.50447516 4.21869929 6 5 C6 5.66 6 6.32 6 7 C4.68 7 3.36 7 2 7 C2 9.31 2 11.62 2 14 C1.67 14 1.34 14 1 14 C0.67 9.38 0.34 4.76 0 0 Z " fill="#D79A37" transform="translate(578,156)"/>
<path d="M0 0 C1.84121215 1.09097798 3.67281256 2.19819251 5.5 3.3125 C6.5209375 3.92738281 7.541875 4.54226562 8.59375 5.17578125 C9.3878125 5.77777344 10.181875 6.37976563 11 7 C11 7.99 11 8.98 11 10 C7.59959266 8.86653089 6.46270748 7.53733498 4 5 C3.2575 4.46375 2.515 3.9275 1.75 3.375 C1.1725 2.92125 0.595 2.4675 0 2 C0 1.34 0 0.68 0 0 Z " fill="#FD9829" transform="translate(614,182)"/>
<path d="M0 0 C0.763125 0.309375 1.52625 0.61875 2.3125 0.9375 C4.18789677 1.67893593 6.08684652 2.36228217 8 3 C8 3.66 8 4.32 8 5 C8.639375 5.28875 9.27875 5.5775 9.9375 5.875 C12 7 12 7 13 9 C7.97290493 7.42903279 3.97133531 4.38006951 0 1 C0 0.67 0 0.34 0 0 Z " fill="#FED51C" transform="translate(478,147)"/>
<path d="M0 0 C0.66 0.33 1.32 0.66 2 1 C0.875 3.875 0.875 3.875 -1 7 C-4.1875 8.375 -4.1875 8.375 -7 9 C-5.44499019 5.18315774 -2.96404505 2.80804268 0 0 Z " fill="#1B54A8" transform="translate(550,39)"/>
<path d="M0 0 C0.66 0.33 1.32 0.66 2 1 C0.25877451 2.03572896 -1.49336595 3.0531252 -3.25 4.0625 C-4.71179688 4.91521484 -4.71179688 4.91521484 -6.203125 5.78515625 C-9 7 -9 7 -11.359375 6.68359375 C-11.90078125 6.45800781 -12.4421875 6.23242188 -13 6 C-12.39671875 5.73445312 -11.7934375 5.46890625 -11.171875 5.1953125 C-10.37265625 4.84210938 -9.5734375 4.48890625 -8.75 4.125 C-7.96109375 3.77695313 -7.1721875 3.42890625 -6.359375 3.0703125 C-4.00201947 2.03750349 -4.00201947 2.03750349 -1.828125 0.8046875 C-1.22484375 0.53914062 -0.6215625 0.27359375 0 0 Z " fill="#53BE64" transform="translate(495,227)"/>
<path d="M0 0 C2.3129482 2.3129482 2.49580975 3.47904875 3.125 6.625 C3.29257812 7.44226562 3.46015625 8.25953125 3.6328125 9.1015625 C3.81457031 10.04128906 3.81457031 10.04128906 4 11 C3.01 10.01 2.02 9.02 1 8 C0.01 8.495 0.01 8.495 -1 9 C-0.67 6.03 -0.34 3.06 0 0 Z " fill="#1746AE" transform="translate(568,54)"/>
<path d="M0 0 C2.96175123 0.61277612 4.38058783 1.25372522 7 3 C7 3.66 7 4.32 7 5 C5.02 5.33 3.04 5.66 1 6 C0.67 5.34 0.34 4.68 0 4 C0.66 4 1.32 4 2 4 C1.34 2.68 0.68 1.36 0 0 Z " fill="#3FABE6" transform="translate(530,246)"/>
<path d="M0 0 C0.66 0.33 1.32 0.66 2 1 C-1.75 4 -1.75 4 -4 4 C-4 4.66 -4 5.32 -4 6 C-3.01 6.33 -2.02 6.66 -1 7 C-1.99 7.495 -1.99 7.495 -3 8 C-5.125 7.0625 -5.125 7.0625 -7 6 C-6 3 -6 3 -3.0625 1.25 C-2.051875 0.8375 -1.04125 0.425 0 0 Z " fill="#FEDD1C" transform="translate(503,114)"/>
<path d="M0 0 C0.66 0 1.32 0 2 0 C2 2.64 2 5.28 2 8 C1.01 8.495 1.01 8.495 0 9 C0.33 7.68 0.66 6.36 1 5 C-0.32 4.67 -1.64 4.34 -3 4 C-1.625 2 -1.625 2 0 0 Z " fill="#4EBF60" transform="translate(479,182)"/>
<path d="M0 0 C1.98 0.495 1.98 0.495 4 1 C3.01 1.33 2.02 1.66 1 2 C1.350625 2.763125 1.70125 3.52625 2.0625 4.3125 C3 7 3 7 2 10 C-1.07692308 4.58461538 -1.07692308 4.58461538 -0.6875 1.625 C-0.460625 1.08875 -0.23375 0.5525 0 0 Z " fill="#FEDE15" transform="translate(435,101)"/>
<path d="M0 0 C3.48670834 1.1094072 6.77484237 2.26337666 10 4 C10 4.66 10 5.32 10 6 C8.68 6 7.36 6 6 6 C6 5.34 6 4.68 6 4 C4.02 3.34 2.04 2.68 0 2 C0 1.34 0 0.68 0 0 Z " fill="#FED51B" transform="translate(503,122)"/>
<path d="M0 0 C0.66 0 1.32 0 2 0 C2.268125 0.598125 2.53625 1.19625 2.8125 1.8125 C3.98493467 3.97224808 5.19369282 5.35790256 7 7 C6.34 7.66 5.68 8.32 5 9 C1.9083091 6.47043472 1.09068668 3.77545388 0 0 Z " fill="#43AAE5" transform="translate(535,265)"/>
<path d="M0 0 C0 3.99904969 -1.72586967 5.80200422 -4 9 C-4.66 8.67 -5.32 8.34 -6 8 C-5.75 5.625 -5.75 5.625 -5 3 C-3 1.75 -3 1.75 -1 1 C-0.67 0.67 -0.34 0.34 0 0 Z " fill="#FEF717" transform="translate(640,156)"/>
<path d="M0 0 C1.98 0.66 3.96 1.32 6 2 C6 2.66 6 3.32 6 4 C3.69 3.67 1.38 3.34 -1 3 C-0.67 2.01 -0.34 1.02 0 0 Z " fill="#3FA0D1" transform="translate(569,203)"/>
<path d="M0 0 C0.66 0.33 1.32 0.66 2 1 C-0.31 3.97 -2.62 6.94 -5 10 C-5 6.60406522 -4.47834052 5.93380119 -2.5 3.3125 C-2.0359375 2.68988281 -1.571875 2.06726563 -1.09375 1.42578125 C-0.7328125 0.95527344 -0.371875 0.48476562 0 0 Z " fill="#FDF914" transform="translate(647,146)"/>
<path d="M0 0 C0.33 0.66 0.66 1.32 1 2 C0.01 2.495 0.01 2.495 -1 3 C-1 3.99 -1 4.98 -1 6 C-2.65 5.67 -4.3 5.34 -6 5 C-5.67 4.01 -5.34 3.02 -5 2 C-2.4375 0.8125 -2.4375 0.8125 0 0 Z " fill="#B8912B" transform="translate(540,182)"/>
<path d="M0 0 C1.98 0.495 1.98 0.495 4 1 C4.33 2.32 4.66 3.64 5 5 C2.13275314 4.42655063 1.1385485 4.1385485 -1 2 C-0.67 1.34 -0.34 0.68 0 0 Z " fill="#264983" transform="translate(575,180)"/>
</svg>
